# xmcd
# 
# Track frame offsets:
#     150
#     14436
#     28442
#     41621
#     57117
# 
# Disc length: 879
# 
# Revision: 0
# Processed by: cddbd v1.5.2PL0 Copyright (c) Steve Scherf et al.
# Submitted via: fre:ac v1.0.17
# 
DISCID=3d036d05
DTITLE=Donots - We Took The Long Way Home [EP]
DYEAR=2011
DGENRE=Punk Rock
TTITLE0=We Took The Long Way Home
TTITLE1=Shoot The Moon
TTITLE2=City Lights
TTITLE3=Second Best
TTITLE4=Ich Töte Meinen Nachbarn und Verprügel Seine Leiche
EXTD=
EXTT0=
EXTT1=
EXTT2=
EXTT3=
EXTT4=
PLAYORDER=
